<?xml version="1.0" encoding="utf-8"?>
<!-- Generator: Adobe Illustrator 18.0.0, SVG Export Plug-In . SVG Version: 6.00 Build 0)  -->
<!DOCTYPE svg PUBLIC "-//W3C//DTD SVG 1.1//EN" "http://www.w3.org/Graphics/SVG/1.1/DTD/svg11.dtd">
<svg version="1.1" id="图层_1" xmlns="http://www.w3.org/2000/svg" xmlns:xlink="http://www.w3.org/1999/xlink" x="0px" y="0px"
	 viewBox="0 0 509 513" enable-background="new 0 0 509 513" xml:space="preserve">
<path fill="#FFFFFF" d="M0.9,380.3c0-140,113.6-253.6,253.6-253.6s253.6,113.6,253.6,253.6c0,2,2,6.1,0,6.1c-288.1,0-219.2,0-507,0
	C-1.1,386.4,0.9,382.2,0.9,380.3z"/>
<path fill="#F95D0A" d="M291.4,252.4h-74.8c-8.9,0-16.3-6.9-16.3-16v-45.1c0-8.9,7.4-16.7,16.3-16.7h1.1v-1.3c0-1.5,1.3-3.3,2.8-3.3
	h15.4c1.5,0,2.8,1.7,2.8,3.3v1.3h52.9c8.9,0,17.3,7.8,17.3,16.7v45.1C308.7,245.4,300.2,252.4,291.4,252.4z M242.6,189.3
	c-13.4,0-24.5,10.8-24.5,24.5c0,13.4,10.8,24.5,24.5,24.5c13.4,0,24.5-10.8,24.5-24.5C267.1,200.4,256,189.3,242.6,189.3z
	 M299.8,188c0-2.8-2.2-5-5-5h-20.4c-2.8,0-5,2.2-5,5v7.4c0,2.8,2.2,5,5,5h20.4c2.8,0,5-2.2,5-5V188z M242.6,227.5
	c-7.6,0-13.9-6.1-13.9-13.9c0-7.6,6.1-13.9,13.9-13.9c7.6,0,13.9,6.1,13.9,13.9C256.5,221.4,250.2,227.5,242.6,227.5z"/>
</svg>
